<svg aria-hidden="true" style="position:absolute;width:0;height:0;overflow:hidden" xmlns="http://www.w3.org/2000/svg">
  <defs>
    <symbol id="arrow-accordion" viewBox="0 0 58 32">
      <path d="M31.63 30.83a4 4 0 0 1-5.66 0L3.34 8.2a3.99 3.99 0 0 1 2.82-6.88A4 4 0 0 1 9 2.54l19.8 19.8 19.8-19.8a4 4 0 0 1 5.66 5.66L31.63 30.83z"/>
    </symbol>
    <symbol id="burger" viewBox="0 0 43 32">
      <path d="M2.35 0a2.29 2.29 0 0 0 0 4.57h36.57a2.29 2.29 0 0 0 0-4.57H2.35zm0 9.14a2.29 2.29 0 0 0 0 4.57h36.57a2.29 2.29 0 0 0 0-4.57H2.35zM.07 20.57a2.29 2.29 0 0 1 2.28-2.28h36.57a2.29 2.29 0 0 1 0 4.57H2.35a2.29 2.29 0 0 1-2.28-2.29zm2.28 6.86a2.29 2.29 0 0 0 0 4.57h36.57a2.29 2.29 0 0 0 0-4.57H2.35z"/>
    </symbol>
    <symbol id="home" viewBox="0 0 33 32">
      <path d="m17.73 5.41 7.82 6.43c.44.36.7.91.7 1.5v11.74c0 1.08-.85 1.92-1.84 1.92h-3.49v-6.33A3.67 3.67 0 0 0 17.25 17h-1.33a3.67 3.67 0 0 0-3.67 3.67V27H8.77c-1 0-1.85-.83-1.85-1.92V13.34c0-.59.26-1.14.7-1.5l7.83-6.43a1.79 1.79 0 0 1 2.28 0zM24.41 29a3.88 3.88 0 0 0 3.85-3.92V13.34a3.94 3.94 0 0 0-1.44-3.05L19 3.87a3.79 3.79 0 0 0-4.82 0l-7.82 6.42a3.94 3.94 0 0 0-1.44 3.05v11.74c0 2.14 1.7 3.92 3.85 3.92H24.4z"/>
    </symbol>
    <symbol id="palm" viewBox="0 0 35 32">
      <path d="M12.4 25.63a7.44 7.44 0 0 0-3.26 4.21l-.05.57.42-.06a7.54 7.54 0 0 0 2.26-.76 5.78 5.78 0 0 1 5.53-.02c1.01.54 2.13.83 3.28.86a5.3 5.3 0 0 0 2.97-.9 4.71 4.71 0 0 1 2.97-.87l1 .06-.76-.66c-3.4-2.95-7.68-4.28-11.37-3.57a21.92 21.92 0 0 0-4.3-10.85l8.52.14v-.34c.03-1.7-2.12-3.09-4.92-3.18l3.35-2.31-.2-.28a2.7 2.7 0 0 0-2.57-.96c-1.23.14-2.4.6-3.41 1.32-.26.18-.5.37-.74.57l1.12-4.89-.33-.08c-1.7-.39-3.53 1.5-4.17 4.31-.13.57-.2 1.15-.21 1.73a8.33 8.33 0 0 0-1.6-.6C3.16 8.3.63 9.03.17 10.71l-.09.33 3.98 1.07C1.4 13.14-.2 15.2.4 16.81l.12.31 8.38-3.14c2.05 3.02 3.07 6.43 3.5 11.65zm13.23 2.38a5.7 5.7 0 0 0-2.46.95c-1.62 1.06-3.44 1.06-5.56 0a6.53 6.53 0 0 0-6.16.02c-.48.26-.98.45-1.5.58a7 7 0 0 1 4.79-4.22c3.42-.97 7.52.05 10.89 2.67zm-10.9-3.37-.18.05a8.8 8.8 0 0 0-1.5.59c-.44-5.1-1.47-8.52-3.5-11.55l.3-.1h.37a21.1 21.1 0 0 1 4.5 11.01zM18.9 13.1l-8.81-.14c.29-1 1.75-1.8 3.57-1.98h.01c.28-.03.57-.04.86-.04 2.2.04 4.07 1 4.37 2.16zm-6.65-4.5a6.55 6.55 0 0 1 3.4-1.21c.5-.03 1 .12 1.4.42l-3.62 2.5c-1.7.2-3.08.89-3.7 1.84.07-1.1 1.03-2.52 2.51-3.55zM8.4 8.1c.49-2.14 1.81-3.78 3.01-3.82l-1.2 5.26c-.37.44-.68.93-.9 1.47-.33-.36-.7-.67-1.1-.94A7.5 7.5 0 0 1 8.4 8.1zM.96 10.6c.6-1.05 2.67-1.45 4.8-.87 1.3.3 2.48 1.03 3.32 2.08l-.03.29c-.4-.23-.84-.38-1.3-.44a7.3 7.3 0 0 0-2.46.1L.96 10.58zm3.4 2.14c.79-.3 1.63-.47 2.48-.48.27 0 .54.02.8.07.6.05 1.15.33 1.55.77 0 .02 0 .03.02.05l-8.24 3.1c-.12-1.2 1.33-2.73 3.39-3.5zM21.03 27.8h-.52v-.51h.52v.51zm-1.34-1h-.52v-.53h.52v.52zm-2.4.25h-.52v-.52h.51v.52zm.96.87h-.51v-.51h.51v.51zm10.23-24.7a2.78 2.78 0 1 0 0 5.57 2.78 2.78 0 0 0 0-5.56zm0 4.89a2.1 2.1 0 1 1 0-4.2 2.1 2.1 0 0 1 0 4.2zm1 22.37-.34.58c-1.96-1.15-3.76-1.15-5.51.02-1.82 1.19-3.92 1.2-6.25.04a4.97 4.97 0 0 0-5.51.01 7.25 7.25 0 0 1-6.76.05l.29-.62a6.55 6.55 0 0 0 6.13-.02 5.65 5.65 0 0 1 6.18 0c2.1 1.03 3.92 1.03 5.54-.03 1.96-1.3 4.06-1.31 6.24-.03zM25.6 3.59l-1.56-1.56.48-.48 1.56 1.56-.48.48zm5.77 4.8 1.56 1.57-.48.48-1.56-1.56.48-.48zm0-4.8-.48-.47 1.56-1.57.48.48-1.56 1.57zm-7.33 6.37L25.6 8.4l.48.48-1.56 1.56-.48-.48zm.7-3.62h-2.2v-.68h2.2v.68zm9.69-.68v.68h-2.2v-.68h2.2zm-5.6-3.4h-.68V.06h.67v2.2zm0 7.47v2.21h-.68v-2.2h.67z"/>
    </symbol>
    <symbol id="arrow-back" viewBox="0 0 33 32">
      <path stroke-linejoin="round" stroke-linecap="round" stroke-width="2.66" d="M22 16H3.33M12.67 25.33 3.33 16l9.34-9.33"/>
    </symbol>
    <symbol id="close" viewBox="0 0 28 32">
      <path d="M26.76 29.58a3.36 3.36 0 0 1-4.75 0l-7.42-8.49-7.43 8.48a3.36 3.36 0 1 1-4.75-4.75L10.14 16 2.4 7.18a3.36 3.36 0 1 1 4.75-4.75l7.43 8.48L22 2.43a3.36 3.36 0 1 1 4.75 4.75L19.04 16l7.72 8.82a3.36 3.36 0 0 1 0 4.76z"/>
    </symbol>
  </defs>
</svg>