<svg id="googleplaytext" width="107" height="22" viewBox="0 0 107 22" fill="none" xmlns="http://www.w3.org/2000/svg">
<path d="M34.2949 6.55017C31.3546 6.55017 28.9526 8.73191 28.9526 11.7421C28.9526 14.7279 31.3546 16.9325 34.2949 16.9325C37.2414 16.9325 39.6434 14.7279 39.6434 11.7421C39.6434 8.73191 37.2414 6.55017 34.2949 6.55017ZM34.2949 14.8881C32.6816 14.8881 31.2936 13.5897 31.2936 11.7421C31.2936 9.87008 32.6816 8.5946 34.2949 8.5946C35.9082 8.5946 37.3025 9.87008 37.3025 11.7421C37.3025 13.5897 35.9082 14.8881 34.2949 14.8881V14.8881ZM22.6386 6.55017C19.692 6.55017 17.2963 8.73191 17.2963 11.7421C17.2963 14.7279 19.692 16.9325 22.6386 16.9325C25.5836 16.9325 27.9809 14.7279 27.9809 11.7421C27.9809 8.73191 25.5836 6.55017 22.6386 6.55017ZM22.6386 14.8881C21.0237 14.8881 19.631 13.5897 19.631 11.7421C19.631 9.87008 21.0237 8.5946 22.6386 8.5946C24.2519 8.5946 25.6399 9.87008 25.6399 11.7421C25.6399 13.5897 24.2519 14.8881 22.6386 14.8881ZM8.76807 8.14146V10.3476H14.1714C14.0133 11.5804 13.5908 12.4866 12.943 13.1183C12.1543 13.8811 10.926 14.7279 8.76807 14.7279C5.44284 14.7279 2.83899 12.1113 2.83899 8.86922C2.83899 5.62712 5.44284 3.01056 8.76807 3.01056C10.566 3.01056 11.8742 3.69559 12.8397 4.58355L14.4343 3.02886C13.0838 1.77169 11.2874 0.805928 8.76807 0.805928C4.2082 0.805928 0.375977 4.42335 0.375977 8.86922C0.375977 13.3151 4.2082 16.9325 8.76807 16.9325C11.2327 16.9325 13.0838 16.1453 14.5391 14.6684C16.0304 13.2144 16.4951 11.17 16.4951 9.51917C16.4951 9.00653 16.4513 8.53509 16.3731 8.14146H8.76807ZM65.4863 9.85177C65.0466 8.69071 63.6899 6.55017 60.9265 6.55017C58.188 6.55017 55.9081 8.6541 55.9081 11.7421C55.9081 14.6501 58.1646 16.9325 61.1893 16.9325C63.6352 16.9325 65.0466 15.4785 65.6272 14.6318L63.812 13.4524C63.2064 14.3159 62.3817 14.8881 61.1893 14.8881C60.0048 14.8881 59.1551 14.3587 58.6105 13.3151L65.732 10.4422L65.4863 9.85177V9.85177ZM58.2256 11.5804C58.1646 9.57867 59.8201 8.5534 61.0063 8.5534C61.9358 8.5534 62.7244 9.00653 62.9873 9.65495L58.2256 11.5804V11.5804ZM52.4373 16.6167H54.7783V1.35976H52.4373V16.6167ZM48.6035 7.70664H48.5253C47.9995 7.09942 46.9965 6.55017 45.7259 6.55017C43.0594 6.55017 40.6214 8.8326 40.6214 11.7589C40.6214 14.6684 43.0594 16.9325 45.7259 16.9325C46.9965 16.9325 47.9995 16.3787 48.5253 15.7532H48.6035V16.4977C48.6035 18.4826 47.516 19.5491 45.7618 19.5491C44.3316 19.5491 43.4444 18.5421 43.0782 17.6954L41.0424 18.5238C41.6292 19.9 43.183 21.5935 45.7618 21.5935C48.5065 21.5935 50.8225 20.019 50.8225 16.188V6.86598H48.6035V7.70664V7.70664ZM45.9262 14.8881C44.3128 14.8881 42.9624 13.5714 42.9624 11.7589C42.9624 9.92958 44.3128 8.5946 45.9262 8.5946C47.516 8.5946 48.7694 9.92958 48.7694 11.7589C48.7694 13.5714 47.516 14.8881 45.9262 14.8881V14.8881ZM76.4463 1.35976H70.8474V16.6167H73.1821V10.8358H76.4463C79.0392 10.8358 81.582 9.00653 81.582 6.09703C81.582 3.18906 79.0329 1.35976 76.4463 1.35976V1.35976ZM76.5073 8.7136H73.1821V3.482H76.5073C78.2505 3.482 79.2457 4.89326 79.2457 6.09703C79.2457 7.27792 78.2505 8.7136 76.5073 8.7136ZM90.9396 6.52118C89.2527 6.52118 87.4986 7.24741 86.7772 8.85701L88.849 9.70377C89.295 8.85701 90.1149 8.58239 90.9818 8.58239C92.193 8.58239 93.4214 9.29184 93.4402 10.5444V10.7046C93.0177 10.4666 92.1132 10.1142 91.0006 10.1142C88.7692 10.1142 86.4955 11.3119 86.4955 13.547C86.4955 15.5914 88.3232 16.9081 90.3778 16.9081C91.9489 16.9081 92.8158 16.217 93.3604 15.4129H93.4402V16.5923H95.6951V10.7397C95.6951 8.03467 93.6233 6.52118 90.9396 6.52118ZM90.6579 14.882C89.8943 14.882 88.8302 14.5128 88.8302 13.5897C88.8302 12.4088 90.1572 11.9557 91.3058 11.9557C92.3338 11.9557 92.8158 12.1769 93.4402 12.4683C93.2571 13.8811 92.0099 14.882 90.6579 14.882V14.882ZM103.91 6.8553L101.227 13.4692H101.147L98.3725 6.8553H95.8547L100.023 16.098L97.6448 21.2411H100.084L106.508 6.8553H103.91V6.8553ZM82.8651 16.6167H85.2061V1.35976H82.8651V16.6167Z" fill="black"/>
<defs></defs>
</svg>
