<svg id="googleplay" width="30" height="33" viewBox="0 0 30 33" fill="none" xmlns="http://www.w3.org/2000/svg">
<path d="M1.06309 1.20145C0.695358 1.57677 0.482544 2.16111 0.482544 2.91785V29.9104C0.482544 30.6672 0.695358 31.2515 1.06309 31.6268L1.15385 31.7092L16.6674 16.5896V16.2326L1.15385 1.11296L1.06309 1.20145Z" fill="url(#paint0_linear_2002_50)"/>
<path d="M21.8328 21.632L16.6674 16.5896V16.2326L21.8391 11.1902L21.9549 11.2558L28.0795 14.6535C29.8274 15.6177 29.8274 17.2045 28.0795 18.1748L21.9549 21.5664L21.8328 21.632V21.632Z" fill="url(#paint1_linear_2002_50)"/>
<path d="M21.9549 21.5664L16.6674 16.4111L1.06305 31.6269C1.6436 32.2219 2.59031 32.2936 3.6669 31.6986L21.9549 21.5664" fill="url(#paint2_linear_2002_50)"/>
<path d="M21.9549 11.2558L3.6669 1.12368C2.59031 0.534764 1.6436 0.606469 1.06305 1.20149L16.6674 16.4111L21.9549 11.2558Z" fill="url(#paint3_linear_2002_50)"/>
<defs>
<linearGradient id="paint0_linear_2002_50" x1="15.29" y1="30.1915" x2="-5.18728" y2="9.18919" gradientUnits="userSpaceOnUse">
<stop stop-color="#00A0FF"/>
<stop offset="0.0066" stop-color="#00A1FF"/>
<stop offset="0.2601" stop-color="#00BEFF"/>
<stop offset="0.5122" stop-color="#00D2FF"/>
<stop offset="0.7604" stop-color="#00DFFF"/>
<stop offset="1" stop-color="#00E3FF"/>
</linearGradient>
<linearGradient id="paint1_linear_2002_50" x1="30.3556" y1="16.4094" x2="0.0646796" y2="16.4094" gradientUnits="userSpaceOnUse">
<stop stop-color="#FFE000"/>
<stop offset="0.4087" stop-color="#FFBD00"/>
<stop offset="0.7754" stop-color="#FFA500"/>
<stop offset="1" stop-color="#FF9C00"/>
</linearGradient>
<linearGradient id="paint2_linear_2002_50" x1="19.0797" y1="13.6086" x2="-8.68916" y2="-14.8723" gradientUnits="userSpaceOnUse">
<stop stop-color="#FF3A44"/>
<stop offset="1" stop-color="#C31162"/>
</linearGradient>
<linearGradient id="paint3_linear_2002_50" x1="-2.86489" y1="40.6072" x2="9.53516" y2="27.8893" gradientUnits="userSpaceOnUse">
<stop stop-color="#32A071"/>
<stop offset="0.0685" stop-color="#2DA771"/>
<stop offset="0.4762" stop-color="#15CF74"/>
<stop offset="0.8009" stop-color="#06E775"/>
<stop offset="1" stop-color="#00F076"/>
</linearGradient>
</defs>
</svg>
